<svg width="170" height="27" viewBox="0 0 170 27" fill="none" xmlns="http://www.w3.org/2000/svg">
<path d="M0 11.605V23.209H11.5752H23.1504V11.605V0.000988007H11.5752H0V11.605ZM18.935 4.18764C18.9234 4.21644 18.7161 4.63683 18.48 5.12633C18.2381 5.61583 17.9732 6.18595 17.8869 6.39326L17.7314 6.76759L15.6755 6.72728C13.6138 6.68696 5.65515 6.76183 4.7107 6.83669C4.42852 6.85397 4.20393 6.85397 4.20393 6.83669C4.20393 6.81942 4.38245 6.4451 4.60129 6.00167C4.81436 5.564 5.07927 4.99963 5.17717 4.74625L5.36721 4.2913L10.959 4.27978C15.664 4.26826 17.1497 4.24523 18.791 4.15885C18.8831 4.15309 18.9465 4.16461 18.935 4.18764ZM18.6182 10.9542C18.4397 11.3113 18.1748 11.8814 18.0251 12.2212L17.7544 12.8431L11.8286 12.8719C8.56911 12.8892 5.52846 12.9238 5.06775 12.9468C4.60705 12.9698 4.22121 12.9813 4.20393 12.9698C4.19241 12.9641 4.26728 12.7913 4.37669 12.5955C4.48611 12.3997 4.75677 11.8296 4.98137 11.3286L5.39024 10.4187L10.3946 10.4129C13.1531 10.4129 15.9864 10.3956 16.7005 10.3726C17.4146 10.3496 18.2093 10.3265 18.4743 10.3208L18.9465 10.3093L18.6182 10.9542ZM18.935 16.4539C18.9234 16.4827 18.7161 16.9031 18.48 17.3926C18.2381 17.8821 17.9732 18.4522 17.8869 18.6595L17.7314 19.0338L15.6755 18.9935C13.6138 18.9532 5.65515 19.0281 4.7107 19.103C4.42852 19.1202 4.20393 19.1202 4.20393 19.103C4.20393 19.0857 4.38245 18.7114 4.60129 18.2679C4.81436 17.8303 5.07927 17.2659 5.17717 17.0125L5.36721 16.5576L10.959 16.546C15.664 16.5345 17.1497 16.5115 18.791 16.4251C18.8831 16.4193 18.9465 16.4309 18.935 16.4539Z" fill="#F5F5F5" fill-opacity="0.960784"/>
<path d="M113.736 11.2592V20.8477H115.435H117.134V11.2592V1.67083H115.435H113.736V11.2592Z" fill="#F5F5F5" fill-opacity="0.960784"/>
<path d="M129.112 5.44855V9.22633L128.819 8.90383C127.742 7.72904 126.164 7.20498 124.356 7.42382C122.294 7.67721 120.872 8.86928 120.134 10.954C119.783 11.9618 119.697 12.5895 119.697 14.1962C119.697 15.3134 119.72 15.7511 119.795 16.1542C120.215 18.3771 121.183 19.8571 122.691 20.5942C123.987 21.2219 125.755 21.3025 127.172 20.79C127.811 20.5597 128.283 20.2487 128.813 19.7362L129.228 19.3273V20.0874V20.8476H130.898H132.568V11.2592V1.67077H130.84H129.112V5.44855ZM126.59 10.0844C127.431 10.2629 128.116 10.8388 128.554 11.7487C128.888 12.434 129.049 13.0905 129.089 13.937C129.147 15.0197 128.974 15.9353 128.554 16.8164C128.105 17.7494 127.454 18.2734 126.556 18.4347C124.574 18.7744 123.238 17.0698 123.238 14.1962C123.238 13.3324 123.342 12.6413 123.561 12.0251C124.091 10.5393 125.243 9.80221 126.59 10.0844Z" fill="#F5F5F5" fill-opacity="0.960784"/>
<path d="M135.908 3.65757V5.29883H137.607H139.306V3.65757V2.01631H137.607H135.908V3.65757Z" fill="#F5F5F5" fill-opacity="0.960784"/>
<path d="M66.1688 2.74821C65.6677 2.78276 64.6945 2.94977 64.1417 3.08798C60.934 3.88845 58.7514 6.03649 57.9567 9.17504C57.5305 10.8566 57.4787 12.8492 57.8185 14.5192C58.4577 17.6635 60.5482 19.8231 63.7788 20.6754C65.8232 21.2167 68.0461 21.2628 70.4879 20.8136C71.0983 20.6984 72.3019 20.4277 72.7799 20.2953L73.1369 20.1974V15.3946V10.5975H69.5377H65.9384V12.0084V13.4193H67.81H69.6816V15.7458V18.0782L69.3822 18.1357C68.4435 18.3258 67.165 18.3661 66.2667 18.2279C63.6752 17.8363 61.8669 15.9704 61.412 13.2177C61.2622 12.3078 61.3256 10.9488 61.5559 10.0561C62.1837 7.6144 63.9401 6.02497 66.474 5.61609C67.165 5.50668 68.3974 5.50668 69.29 5.62185C70.1193 5.73127 71.3171 6.02497 71.9218 6.2726C72.1579 6.3705 72.3595 6.4396 72.3595 6.43385C72.4113 6.36474 72.5668 3.49685 72.5265 3.45654C72.3595 3.28954 70.2172 2.8749 68.9618 2.76549C68.3225 2.71366 66.7734 2.70214 66.1688 2.74821Z" fill="#F5F5F5" fill-opacity="0.960784"/>
<path d="M30.5217 11.8927V20.79H35.791H41.0603V19.4079V18.0258H37.5763H34.0922V15.5207V13.0156H37.2595H40.4269V11.6047V10.1938H37.2595H34.0922V8.00549V5.81714H37.5475H41.0028V4.40623V2.99532H35.7622H30.5217V11.8927Z" fill="#F5F5F5" fill-opacity="0.960784"/>
<path d="M44.6882 11.8927V20.79H46.4735H48.2587V16.9028V13.0156H51.2533H54.2479V11.6047V10.1938H51.2533H48.2587V8.00549V5.81714H51.426H54.5934L54.5819 4.41775L54.5646 3.02412L49.6293 3.00684L44.6882 2.99532V11.8927Z" fill="#F5F5F5" fill-opacity="0.960784"/>
<path d="M80.5081 11.9215V20.8477H82.2933H84.0785V16.9317V13.0157H87.649H91.2194V16.9317V20.8477H93.0047H94.7899V11.9215V2.99535H93.0047H91.2194V6.59461V10.1939H87.649H84.0785V6.59461V2.99535H82.2933H80.5081V11.9215Z" fill="#F5F5F5" fill-opacity="0.960784"/>
<path d="M103.342 7.43581C101.66 7.6604 100.082 8.47816 99.1091 9.62416C97.8768 11.0869 97.3009 13.1773 97.56 15.2908C97.8768 17.8996 99.3913 19.8518 101.747 20.6983C102.582 20.9978 103.244 21.0957 104.378 21.0957C105.513 21.0957 106.175 20.9978 107.01 20.6983C109.193 19.9151 110.65 18.176 111.128 15.7918C111.278 15.0374 111.266 13.471 111.093 12.6878C110.506 9.92362 108.646 8.06928 105.905 7.51643C105.369 7.40702 103.883 7.36095 103.342 7.43581ZM105.07 10.1079C105.68 10.2346 106.164 10.4995 106.596 10.9372C107.448 11.801 107.816 13.1716 107.638 14.8186C107.408 16.909 106.567 18.0896 105.087 18.3948C103.578 18.7058 102.288 18.1069 101.649 16.8054C100.952 15.3887 100.883 13.2004 101.499 11.8989C102.173 10.4765 103.549 9.7854 105.07 10.1079Z" fill="#F5F5F5" fill-opacity="0.960784"/>
<path d="M149.153 7.45843C148.024 7.64271 147.12 8.12645 146.337 8.96148L145.871 9.46249V8.55836V7.65999H144.258H142.646V14.2538V20.8477H144.345H146.043V17.4039C146.043 15.3941 146.066 13.7586 146.101 13.4764C146.349 11.4608 147.247 10.263 148.664 10.0614C149.971 9.87137 150.823 10.4818 151.152 11.8466C151.238 12.1864 151.249 12.7911 151.267 16.5401L151.29 20.8477H152.989H154.687L154.67 16.0506L154.653 11.2592L154.492 10.6834C154.411 10.3666 154.215 9.85985 154.071 9.56039C153.576 8.55836 152.678 7.82699 151.589 7.53905C151.002 7.38356 149.833 7.34325 149.153 7.45843Z" fill="#F5F5F5" fill-opacity="0.960784"/>
<path d="M161.851 7.42405C160.659 7.62561 159.795 8.0748 158.995 8.90982C158.321 9.61816 157.878 10.3841 157.538 11.4207C156.847 13.5399 157.008 16.3041 157.93 18.1412C158.235 18.7459 158.448 19.0396 158.914 19.4945C159.715 20.2777 160.619 20.6636 161.903 20.7845C162.957 20.8881 163.861 20.7269 164.788 20.272C165.474 19.9379 165.963 19.5521 166.314 19.0684L166.573 18.7113L166.591 19.1029C166.62 19.6327 166.504 20.6636 166.366 21.2222C166.032 22.5294 165.255 23.3472 164.034 23.6754C163.36 23.8597 162.22 23.8597 161.477 23.6754C160.769 23.4969 159.899 23.1974 159.306 22.921L158.834 22.7022L158.799 22.8807C158.759 23.1571 158.534 25.5816 158.551 25.5988C158.667 25.6795 159.536 25.9674 160.124 26.1171C161.189 26.3878 161.805 26.4569 163.118 26.4569C164.731 26.4627 165.744 26.2611 166.804 25.7486C168.295 25.0172 169.182 23.9346 169.677 22.2127C170 21.107 170 21.0667 170 14.087V7.66016H168.388H166.775V8.55278C166.775 9.04228 166.758 9.44539 166.735 9.44539C166.706 9.43963 166.585 9.29566 166.458 9.11714C165.911 8.35698 165.065 7.79262 164.097 7.53923C163.585 7.40677 162.341 7.34343 161.851 7.42405ZM164.241 10.0789C165.191 10.2574 165.934 10.9715 166.28 12.0253C166.481 12.6646 166.545 13.0159 166.585 13.7645C166.689 15.7801 166.044 17.2946 164.829 17.8936C164.391 18.1124 164.385 18.1124 163.671 18.1124C163.009 18.1124 162.917 18.1009 162.629 17.9627C161.989 17.6575 161.511 17.1392 161.154 16.3732C160.653 15.3021 160.544 13.7818 160.878 12.4688C161.005 11.9678 161.373 11.2479 161.667 10.9139C162.283 10.2228 163.285 9.90034 164.241 10.0789Z" fill="#F5F5F5" fill-opacity="0.960784"/>
<path d="M135.908 14.2538V20.8477H137.607H139.306V14.2538V7.65999H137.607H135.908V14.2538Z" fill="#F5F5F5" fill-opacity="0.960784"/>
</svg>
